<?xml version="1.0" encoding="utf-8"?>
<!-- Generator: Adobe Illustrator 20.0.0, SVG Export Plug-In . SVG Version: 6.00 Build 0)  -->
<svg version="1.1" id="Ebene_1" xmlns="http://www.w3.org/2000/svg" xmlns:xlink="http://www.w3.org/1999/xlink" x="0px" y="0px"
	 viewBox="0 0 680.3 85" style="enable-background:new 0 0 680.3 85;" xml:space="preserve">
<style type="text/css">
	.st0{fill:#2284C7;}
	.st1{fill:#030304;stroke:url(#SVGID_1_);stroke-width:4.874;stroke-linejoin:round;}
	.st2{fill:#030304;stroke:url(#SVGID_2_);stroke-width:4.874;stroke-linejoin:round;}
	.st3{fill:#030304;stroke:url(#SVGID_3_);stroke-width:4.874;stroke-linejoin:round;}
	.st4{fill:#030304;stroke:url(#SVGID_4_);stroke-width:4.874;stroke-linejoin:round;}
	.st5{fill:#030304;stroke:url(#SVGID_5_);stroke-width:4.874;stroke-linejoin:round;}
	.st6{fill:#030304;stroke:url(#SVGID_6_);stroke-width:4.874;stroke-linejoin:round;}
	.st7{fill:#030304;stroke:url(#SVGID_7_);stroke-width:4.874;stroke-linejoin:round;}
	.st8{fill:#030304;stroke:url(#SVGID_8_);stroke-width:4.874;stroke-linejoin:round;}
	.st9{fill:#FFFFFF;}
	.st10{font-family:'Georgia';}
	.st11{font-size:44px;}
	.st12{fill:#020203;}
</style>
<g>
	<g id="Ebene_2">
		<polygon class="st0" points="18.6,24.2 5,60.2 475.9,60.2 489.5,24.2 		"/>
		<polygon class="st0" points="98.1,24.2 84.6,60.2 490.5,60.2 504.1,24.2 		"/>
	</g>
	<g id="Ebene_3">
		<g>
			
				<linearGradient id="SVGID_1_" gradientUnits="userSpaceOnUse" x1="786.9886" y1="49.9922" x2="783.1371" y2="49.9922" gradientTransform="matrix(1 0 0 -1 0 87.98)">
				<stop  offset="0" style="stop-color:#030304"/>
				<stop  offset="1" style="stop-color:#030304;stop-opacity:0"/>
			</linearGradient>
			<path class="st1" d="M32.2,50.3l10.7-10.2c0,0-1.7-7.2-3.3-14.2c-10.2-1.1-12.9,2.2-12.9,2.2s-2.9,3.7-4,13.9
				C23.6,44.8,32.2,50.3,32.2,50.3z"/>
			
				<linearGradient id="SVGID_2_" gradientUnits="userSpaceOnUse" x1="837.3276" y1="40.2069" x2="833.407" y2="40.2069" gradientTransform="matrix(1 0 0 -1 0 87.98)">
				<stop  offset="0" style="stop-color:#030304"/>
				<stop  offset="1" style="stop-color:#030304;stop-opacity:0"/>
			</linearGradient>
			<path class="st2" d="M59.2,45.4c0,0,2.8-4.1,11-9.6c6.8,2.9,9.7,7.8,9.7,7.8s-0.3,7.4-4.7,14.7c-7.4,2.5-12.6,1-12.6,1L59.2,45.4
				z"/>
			
				<linearGradient id="SVGID_3_" gradientUnits="userSpaceOnUse" x1="893.1664" y1="73.6387" x2="888.9191" y2="73.6387" gradientTransform="matrix(1 0 0 -1 0 87.98)">
				<stop  offset="0" style="stop-color:#030304"/>
				<stop  offset="1" style="stop-color:#030304;stop-opacity:0"/>
			</linearGradient>
			<path class="st3" d="M51.9,15.9c0,0-0.5-3.4-1.9-6.6c14-5.6,22.9,7.2,22.9,7.2s-2.9,2.2-6.5,4.3C59.6,16.1,51.9,15.9,51.9,15.9z"
				/>
			
				<linearGradient id="SVGID_4_" gradientUnits="userSpaceOnUse" x1="862.3267" y1="16.73" x2="858.1382" y2="16.73" gradientTransform="matrix(1 0 0 -1 0 87.98)">
				<stop  offset="0" style="stop-color:#030304"/>
				<stop  offset="1" style="stop-color:#030304;stop-opacity:0"/>
			</linearGradient>
			<path class="st4" d="M36,64.4c0,0,4.9,4.8,14.9,5.2c0.7,1.8,2.5,6.5,2.5,6.5s-4.6,2-7.2,2c-4-0.3-11-3.8-11-3.8s-4.1-4.5-4.3-5.1
				C32.7,67.5,36,64.4,36,64.4z"/>
			
				<linearGradient id="SVGID_5_" gradientUnits="userSpaceOnUse" x1="297.3784" y1="50.63" x2="296.3052" y2="50.63" gradientTransform="matrix(1 0 0 -1 0 87.98)">
				<stop  offset="0" style="stop-color:#030304"/>
				<stop  offset="1" style="stop-color:#030304;stop-opacity:0"/>
			</linearGradient>
			<path class="st5" d="M86.1,32.3c0.3-0.1,0.6-0.2,0.6-0.2s1.5,5,1.5,10.5c-0.8-2.3-2.1-4.4-2.1-4.4S86.7,36.3,86.1,32.3z"/>
			
				<linearGradient id="SVGID_6_" gradientUnits="userSpaceOnUse" x1="387.811" y1="20.1593" x2="386.2263" y2="20.1593" gradientTransform="matrix(1 0 0 -1 0 87.98)">
				<stop  offset="0" style="stop-color:#030304"/>
				<stop  offset="1" style="stop-color:#030304;stop-opacity:0"/>
			</linearGradient>
			<path class="st6" d="M80.2,65.3c-3,3.5-4.1,4.2-5.3,5.2c-0.1,0.1-0.2,0-0.1-0.1c0,0,2-2.8,2.8-4.3c0.1,0.3,0,0,0,0
				c0.2,0,1.1-0.3,2.5-1C80.2,65.2,80.3,65.3,80.2,65.3z"/>
			
				<linearGradient id="SVGID_7_" gradientUnits="userSpaceOnUse" x1="205.9529" y1="39.98" x2="204.9877" y2="39.98" gradientTransform="matrix(1 0 0 -1 0 87.98)">
				<stop  offset="0" style="stop-color:#030304"/>
				<stop  offset="1" style="stop-color:#030304;stop-opacity:0"/>
			</linearGradient>
			<path class="st7" d="M17.2,51.2c0,0,0.3-3.5,0.4-4c-0.1,0-0.9-1.4-1.4-2.4C16.4,48,17.2,51.2,17.2,51.2z"/>
			
				<linearGradient id="SVGID_8_" gradientUnits="userSpaceOnUse" x1="380.7557" y1="70.63" x2="378.9498" y2="70.63" gradientTransform="matrix(1 0 0 -1 0 87.98)">
				<stop  offset="0" style="stop-color:#030304"/>
				<stop  offset="1" style="stop-color:#030304;stop-opacity:0"/>
			</linearGradient>
			<path class="st8" d="M26.7,19.6c1.1-1.7,2-3.3,3.9-5.7c-2.9,1.6-6.9,6.9-6.9,6.9S25.5,19.8,26.7,19.6z"/>
		</g>
	</g>
	<g>
		<text transform="matrix(1 0 0 1 99.6665 57.6333)" class="st9 st10 st11">LEGENDSLEAGUE</text>
	</g>
	<text transform="matrix(1 0 0 1 503.6665 57.6)" class="st12 st10 st11">ONLINE</text>
</g>
</svg>
