<?xml version="1.0" encoding="utf-8"?>
<!-- Generator: Adobe Illustrator 20.0.0, SVG Export Plug-In . SVG Version: 6.00 Build 0)  -->
<svg version="1.1" xmlns="http://www.w3.org/2000/svg" xmlns:xlink="http://www.w3.org/1999/xlink" x="0px" y="0px"
	 viewBox="0 0 720 120" style="enable-background:new 0 0 720 120;" xml:space="preserve">
<style type="text/css">
	.st0{fill:#1C84C7;}
	.st1{fill:#FFFFFF;}
	.st2{fill:#010202;stroke:url(#SVGID_1_);stroke-width:4.874;stroke-linejoin:round;}
	.st3{fill:#010202;stroke:url(#SVGID_2_);stroke-width:4.874;stroke-linejoin:round;}
	.st4{fill:#010202;stroke:url(#SVGID_3_);stroke-width:4.874;stroke-linejoin:round;}
	.st5{fill:#010202;stroke:url(#SVGID_4_);stroke-width:4.874;stroke-linejoin:round;}
	.st6{fill:#010202;stroke:url(#SVGID_5_);stroke-width:4.874;stroke-linejoin:round;}
	.st7{fill:#010202;stroke:url(#SVGID_6_);stroke-width:4.874;stroke-linejoin:round;}
	.st8{fill:#010202;stroke:url(#SVGID_7_);stroke-width:4.874;stroke-linejoin:round;}
	.st9{fill:#010202;stroke:url(#SVGID_8_);stroke-width:4.874;stroke-linejoin:round;}
</style>
<g id="Ebene_2">
	<polygon class="st0" points="20.6,45.2 7,81.2 477.9,81.2 491.5,45.2 	"/>
	<polygon class="st0" points="100.1,45.2 86.6,81.2 492.5,81.2 506.1,45.2 	"/>
</g>
<g id="Ebene_1">
	<g>
		<path class="st1" d="M143.5,77.7c0,0.4-0.1,0.6-0.2,0.7s-0.6,0.1-1.3,0.1c-4.1-0.2-7.2-0.2-9.5,0c-0.7,0-1.1-0.2-1.1-0.8
			c0-0.3,0.4-0.6,1.1-0.7c1.4-0.3,2.2-0.6,2.5-0.8c0.3-0.3,0.5-0.9,0.5-1.8l-0.8-20c0-0.4-0.1-0.6-0.3-0.6c-0.2,0-0.3,0.1-0.4,0.4
			c-2.8,5.6-4.7,9.6-5.9,11.9c-2.3,4.7-3.9,8.3-4.8,10.7c-0.4,1.1-0.6,1.7-0.7,1.8c-0.2,0.3-0.4,0.5-0.7,0.6c-0.2,0-0.3,0.1-0.4,0.1
			c-0.3,0-0.6-0.5-0.8-1.4c-1-3.5-4.4-11.4-10.2-23.5c-0.2-0.4-0.4-0.5-0.6-0.5c-0.3,0-0.4,0.2-0.4,0.7c-0.2,4.6-0.5,10.8-0.8,18.5
			c-0.1,2.1,0.9,3.3,3.1,3.7c0.9,0.2,1.3,0.5,1.3,0.9c0,0.4-0.1,0.6-0.2,0.7s-0.6,0.1-1.2,0.1c-3.6-0.1-6.4-0.1-8.4,0
			c-0.7,0-1.1-0.2-1.1-0.8c0-0.3,0.4-0.6,1.1-0.7c1.3-0.3,2.1-0.7,2.5-1.2c0.3-0.4,0.5-1.2,0.5-2.4l0.8-20.7c0-0.9-0.1-1.6-0.5-2.1
			c-0.3-0.4-1-0.9-2.1-1.4c-0.8-0.3-1.1-0.7-1.1-1.1c0-0.4,0.4-0.6,1-0.5c2.4,0.3,4.5,0.4,6.3,0.2c0.7-0.1,1.2-0.1,1.4,0
			s0.5,0.4,0.7,0.8l9.8,22.4c0.1,0.3,0.2,0.5,0.3,0.5s0.2-0.2,0.4-0.6c0.6-1.3,4.1-8.6,10.5-21.7c0.4-0.8,0.9-1.2,1.5-1.2
			c1.5,0,3.5-0.2,6.1-0.6c0.6-0.1,1-0.1,1.1-0.1c0.3,0.1,0.4,0.4,0.4,0.9c0,0.4-0.4,0.7-1.2,1c-2,0.6-2.9,1.3-2.9,2.2l0.9,22.8
			c0,0.9,0.3,1.5,0.7,1.9c0.3,0.3,1,0.6,1.9,0.8C143.1,76.9,143.5,77.2,143.5,77.7z"/>
		<path class="st1" d="M183.5,48.4c0,0.3-0.4,0.6-1.1,0.7c-1.2,0.3-2,0.6-2.3,0.8c-0.4,0.4-0.7,1.1-0.7,2.2v13.4
			c0,4.3-1.1,7.6-3.4,9.9c-2.3,2.4-5.6,3.6-10,3.6c-9.2,0-13.8-4.3-13.8-13V52c0-1.5-0.9-2.4-2.6-2.7c-0.6-0.1-1-0.2-1.1-0.3
			s-0.2-0.3-0.2-0.6c0-0.5,0.1-0.8,0.4-0.8c0.1,0,0.5-0.1,1.1,0c4.2,0.2,7.4,0.2,9.6,0c0.5,0,0.8,0,0.9,0.1s0.2,0.4,0.2,0.8
			c0,0.3-0.3,0.6-1,0.7c-1.3,0.3-2.1,0.5-2.3,0.6c-0.5,0.3-0.8,1-0.8,1.9v13.5c0,4,0.8,6.9,2.5,8.8s4.3,2.8,8,2.8
			c6.3,0,9.4-3.6,9.4-10.9V52.5c0-1.1-0.3-1.8-0.8-2.3c-0.4-0.4-1.2-0.7-2.3-0.9c-0.9-0.2-1.3-0.4-1.3-0.9c0-0.5,0.1-0.8,0.4-0.8
			c0.1,0,0.5,0,1.1,0c4.3,0.2,7.3,0.2,9,0c0.6-0.1,1,0.1,1,0.4C183.5,48,183.5,48.2,183.5,48.4z"/>
		<path class="st1" d="M216.3,78.5c0,0.4-0.3,0.5-0.9,0.5c-5.6,0-10.9-4.8-15.9-14.4c-1.9,0.1-2.9,0.1-3.1,0.1v9.8
			c0,0.7,0.2,1.2,0.5,1.5s1.2,0.5,2.4,0.6c0.9,0.1,1.3,0.4,1.3,0.9c0,0.4-0.1,0.6-0.2,0.7s-0.5,0.1-1.2,0.1
			c-2.8-0.1-5.9-0.1-9.3,0.2c-0.7,0-1-0.2-1-0.8c0-0.4,0.3-0.6,1-0.7c1.5-0.2,2.3-1,2.3-2.5V52.1c0-1.5-0.9-2.4-2.6-2.7
			c-0.9-0.2-1.3-0.4-1.3-0.8c0-0.6,0.3-0.9,0.9-0.9c0.2,0,0.4,0,0.6,0c0.6,0.1,1.6,0.1,2.9,0.1c0.4,0,1.5,0,3.3-0.1s3.4-0.1,4.9-0.1
			c3.1,0,5.6,0.6,7.4,1.8c2,1.3,3,3.2,3,5.7c0,4.3-2.5,7.2-7.5,8.6c1.6,3.6,3.5,6.7,5.6,9.3c2.2,2.7,4.2,4.1,6,4.4
			C216,77.6,216.3,77.9,216.3,78.5z M206.9,55.8c0-2.3-0.6-4-1.8-4.9s-3.1-1.5-5.7-1.5c-1.2,0-2,0.2-2.4,0.5s-0.6,1-0.6,2.1v11
			c3.8-0.1,6.5-0.8,8.2-2C206.1,59.9,206.9,58.2,206.9,55.8z"/>
		<path class="st1" d="M250,77.6c0,0.4-0.1,0.6-0.2,0.7s-0.4,0.1-0.8,0.1c-4-0.2-7.3-0.1-9.7,0.2c-0.6,0.1-0.9,0-1-0.4
			c-0.1-0.4,0.2-0.7,1-1.1c0.4-0.2,0.7-0.6,0.7-1.1s-0.3-1.1-0.8-1.6c-2.2-2.3-5.9-5.9-11.3-11v11c0,0.9,0.9,1.6,2.8,2.1
			c0.8,0.2,1.2,0.5,1.2,0.9c0,0.4-0.1,0.6-0.2,0.7s-0.5,0.1-1.1,0.1c-2.8-0.1-5.8-0.1-9.2,0.2c-0.6,0-1-0.2-1-0.8
			c0-0.4,0.3-0.6,1-0.7c1.5-0.2,2.2-1,2.2-2.5V52.1c0-1.5-0.8-2.4-2.5-2.7c-0.6-0.1-0.9-0.2-1.1-0.3s-0.2-0.2-0.2-0.5
			c0-0.4,0.1-0.6,0.2-0.7s0.5-0.1,1.2-0.1c3.9,0.2,7,0.2,9.4,0c0.7-0.1,1,0.2,1,0.8c0,0.3-0.3,0.5-1,0.7c-1.2,0.3-1.9,0.5-2.2,0.7
			c-0.5,0.3-0.7,0.9-0.7,1.9V62c4.4-3.7,8-6.8,10.7-9.2c0.8-0.7,1.2-1.4,1.2-2s-0.4-1.1-1.3-1.4c-0.5-0.2-0.8-0.3-0.8-0.3
			c-0.2-0.1-0.3-0.4-0.3-0.7c0-0.4,0.1-0.6,0.3-0.6c0.2-0.1,0.5-0.1,1.1,0c3,0.3,5.8,0.3,8.3,0.1c0.4,0,0.6,0,0.8,0.1
			s0.2,0.3,0.3,0.7c0.1,0.3,0,0.5-0.1,0.6s-0.5,0.3-1,0.4c-1.5,0.5-3.3,1.6-5.6,3.4c-1.7,1.3-5.1,4.2-10.4,8.7
			c5.7,5.5,10.2,9.6,13.5,12.5c1.4,1.3,2.9,2.1,4.4,2.5C249.7,77,250,77.3,250,77.6z"/>
		<path class="st1" d="M286.6,78c-0.1,0.4-0.2,0.7-0.3,0.8c-0.1,0.1-0.3,0-0.7,0c-2.2-0.4-5.5-0.5-9.8-0.1c-0.8,0.1-1.3-0.1-1.3-0.5
			c-0.1-0.4,0.2-0.8,0.8-1c1.7-0.7,2.5-1.3,2.5-1.9c0-0.2-0.1-0.6-0.3-1c-1.2-2.8-2.1-5-2.9-6.7c-1.1,0.1-3.1,0.1-5.9,0.1
			c-2.3,0-4.3-0.1-5.9-0.2c-0.5,1.3-1.3,3.2-2.3,5.6c-0.2,0.5-0.3,1-0.3,1.5c0,0.9,0.5,1.5,1.4,1.9c1.5,0.6,2.2,1.1,2.2,1.4
			c0,0.5-0.5,0.7-1.5,0.6c-2.9-0.3-5.7-0.2-8.2,0.3c-0.7,0.1-1-0.1-1.1-0.7c-0.1-0.4,0.4-0.8,1.5-1.3c1.2-0.5,2.1-1.6,2.9-3.4
			c3-6.6,5-11,5.9-13c2.2-5,3.7-9.1,4.6-12.2c0.1-0.5,0.7-0.9,1.9-1.4c0.3-0.1,0.6,0.4,1,1.4c3.4,8.1,7.2,16.8,11.3,26.1
			c0.7,1.5,1.8,2.4,3.4,2.9C286.3,77.3,286.7,77.6,286.6,78z M273.8,65.6c-1-2.3-2.6-6-4.8-10.9c-0.1-0.3-0.3-0.4-0.4-0.4
			s-0.3,0.1-0.4,0.4l-4.5,10.8c1.7,0.1,3.5,0.2,5.6,0.2C270.6,65.7,272.1,65.7,273.8,65.6z"/>
		<path class="st1" d="M314.5,72.6c-0.5,2-0.8,3.9-0.8,5.6c0,0.3-0.5,0.4-1.5,0.4c-2.5-0.1-5.5-0.2-9.2-0.2c-3.9,0-7.3,0.1-10.4,0.2
			c-0.5,0-0.7,0-0.8-0.1s-0.2-0.3-0.2-0.7c0-0.4,0.3-0.6,1-0.7c1.5-0.2,2.3-1,2.3-2.5V53c0-1.1-0.1-1.9-0.4-2.4
			c-0.4-0.6-1-1.1-2.1-1.5c-0.6-0.2-0.9-0.6-0.8-1.1c0-0.3,0.1-0.5,0.3-0.6s0.6-0.1,1.2,0c2.3,0.3,5,0.2,8.2,0c0.6,0,0.9-0.1,1,0
			c0.3,0,0.5,0.3,0.5,0.6c0,0.4-0.1,0.7-0.3,0.9c-0.1,0.1-0.4,0.2-1,0.3c-1.1,0.3-1.8,0.5-2.1,0.9s-0.4,1-0.4,2v21
			c0,1.3,0.4,2.2,1.3,2.7s2.5,0.7,4.8,0.7c2.2,0,3.9-0.3,4.9-0.9s1.9-1.6,2.6-3.2c0.3-0.6,0.6-0.8,1.1-0.6
			C314.4,71.8,314.6,72.1,314.5,72.6z"/>
		<path class="st1" d="M342.9,72.6c-0.4,1.9-0.7,3.7-0.9,5.6c0,0.3-0.5,0.4-1.4,0.4c-2.4-0.1-5.5-0.2-9.3-0.2
			c-4.2,0-7.7,0.1-10.7,0.2c-0.7,0-1-0.2-1-0.8c0-0.4,0.3-0.6,1-0.7c0.9-0.1,1.5-0.3,1.8-0.5c0.3-0.3,0.5-1,0.5-2V53
			c0-1.5-0.1-2.4-0.4-2.8s-1-0.8-2.2-1.1c-0.6-0.2-0.9-0.6-0.7-1.1c0.1-0.3,0.2-0.5,0.4-0.5c0.2,0,0.6,0,1.2,0.1
			c1,0.2,3.6,0.2,7.8,0.2c4.2,0,7.8-0.1,10.9-0.3c1-0.1,1.5,0,1.5,0.2c0,0.1,0,0.2,0,0.2c-0.3,1.5-0.5,3.3-0.4,5.3
			c0,0.5-0.2,0.7-0.7,0.7c-0.4,0-0.7-0.2-0.9-0.6c-0.4-1.1-0.8-1.8-1.1-2.2c-0.5-0.6-1.2-1-2.2-1.1c-0.8-0.1-3.4-0.2-7.9-0.2
			c-0.5,0-0.8,0.1-1,0.3c-0.1,0.1-0.1,0.3-0.1,0.7v9.8c0,0.4,0.2,0.6,0.7,0.6c1.4,0,3.5-0.1,6.2-0.3c0.5,0,0.8-0.3,1-0.7
			c0.2-0.3,0.4-1,0.5-1.9c0.1-0.7,0.5-0.9,1.1-0.7c0.5,0.1,0.8,0.3,0.7,0.7c-0.4,2.1-0.6,4.9-0.4,8.3c0,0.4-0.2,0.6-0.8,0.7
			c-0.5,0.1-0.7-0.2-0.8-0.8c-0.2-1.2-0.4-2-0.6-2.4s-0.7-0.6-1.4-0.7c-1.3-0.2-3.2-0.2-5.8-0.2c-0.3,0-0.4,0.1-0.4,0.3v10.2
			c0,1.5,0.8,2.3,2.5,2.7c0.4,0.1,1.9,0.1,4.4,0.1c3.9,0,6.3-1.4,7.3-4.1c0.2-0.6,0.6-0.9,1.1-0.6C342.9,71.8,343,72.1,342.9,72.6z"
			/>
		<path class="st1" d="M380.9,78c-0.1,0.4-0.2,0.7-0.3,0.8c-0.1,0.1-0.3,0-0.7,0c-2.2-0.4-5.5-0.5-9.8-0.1c-0.8,0.1-1.3-0.1-1.3-0.5
			c-0.1-0.4,0.2-0.8,0.8-1c1.7-0.7,2.5-1.3,2.5-1.9c0-0.2-0.1-0.6-0.3-1c-1.2-2.8-2.1-5-2.9-6.7c-1.1,0.1-3.1,0.1-5.9,0.1
			c-2.3,0-4.3-0.1-5.9-0.2c-0.5,1.3-1.3,3.2-2.3,5.6c-0.2,0.5-0.3,1-0.3,1.5c0,0.9,0.5,1.5,1.4,1.9c1.5,0.6,2.2,1.1,2.2,1.4
			c0,0.5-0.5,0.7-1.5,0.6c-2.9-0.3-5.7-0.2-8.2,0.3c-0.7,0.1-1-0.1-1.1-0.7c-0.1-0.4,0.4-0.8,1.5-1.3c1.2-0.5,2.1-1.6,2.9-3.4
			c3-6.6,5-11,5.9-13c2.2-5,3.7-9.1,4.6-12.2c0.1-0.5,0.7-0.9,1.9-1.4c0.3-0.1,0.6,0.4,1,1.4c3.4,8.1,7.2,16.8,11.3,26.1
			c0.7,1.5,1.8,2.4,3.4,2.9C380.7,77.3,381,77.6,380.9,78z M368.2,65.6c-1-2.3-2.6-6-4.8-10.9c-0.1-0.3-0.3-0.4-0.4-0.4
			s-0.3,0.1-0.4,0.4l-4.5,10.8c1.7,0.1,3.5,0.2,5.6,0.2C365,65.7,366.5,65.7,368.2,65.6z"/>
		<path class="st1" d="M419.1,64.5c0,0.5-0.4,0.8-1.1,0.9c-1,0.2-1.6,0.3-1.8,0.3c-0.6,0.2-0.8,0.7-0.8,1.4v7.3c0,0.9-1.2,1.9-3.6,3
			c-2.7,1.2-5.7,1.8-9.1,1.8c-4.9,0-9-1.5-12.3-4.4c-3.3-3-5-6.8-5-11.4c0-4.7,1.7-8.7,5.1-11.8c3.3-3,7.3-4.5,12-4.5
			c3.6,0,6.6,0.4,9.1,1.3c1.8,0.6,2.8,1.3,2.9,1.9c0.2,1.2,0.2,2.9,0.2,5.3c0,0.5-0.3,0.8-1,0.8c-0.8,0-1.2-0.2-1.4-0.6
			c-0.9-2.3-2.1-4-3.6-5S405,49,402.3,49c-3.8,0-6.7,1.1-8.8,3.4c-2.2,2.4-3.3,5.8-3.3,10.3c0,4.3,1.3,7.8,3.8,10.4
			c2.4,2.6,5.5,3.8,9.4,3.8c2,0,3.8-0.4,5.5-1.1c1.6-0.7,2.4-1.4,2.4-2V69c0-1.2-0.2-2-0.7-2.5c-0.4-0.5-1.2-0.9-2.4-1.2
			c-0.9-0.3-1.3-0.6-1.3-1c0.1-0.4,0.2-0.7,0.3-0.8s0.5-0.1,1.1,0c3.3,0.4,6.6,0.4,9.7,0.1c0.2,0,0.3,0,0.4,0
			C418.9,63.6,419.1,63.9,419.1,64.5z"/>
		<path class="st1" d="M458.1,48.4c0,0.3-0.4,0.6-1.1,0.7c-1.2,0.3-2,0.6-2.3,0.8c-0.4,0.4-0.7,1.1-0.7,2.2v13.4
			c0,4.3-1.1,7.6-3.4,9.9c-2.3,2.4-5.6,3.6-10,3.6c-9.2,0-13.8-4.3-13.8-13V52c0-1.5-0.9-2.4-2.6-2.7c-0.6-0.1-1-0.2-1.1-0.3
			s-0.2-0.3-0.2-0.6c0-0.5,0.1-0.8,0.4-0.8c0.1,0,0.5-0.1,1.1,0c4.2,0.2,7.4,0.2,9.6,0c0.5,0,0.8,0,0.9,0.1s0.2,0.4,0.2,0.8
			c0,0.3-0.3,0.6-1,0.7c-1.3,0.3-2.1,0.5-2.3,0.6c-0.5,0.3-0.8,1-0.8,1.9v13.5c0,4,0.8,6.9,2.5,8.8s4.3,2.8,8,2.8
			c6.3,0,9.4-3.6,9.4-10.9V52.5c0-1.1-0.3-1.8-0.8-2.3c-0.4-0.4-1.2-0.7-2.3-0.9c-0.9-0.2-1.3-0.4-1.3-0.9c0-0.5,0.1-0.8,0.4-0.8
			c0.1,0,0.5,0,1.1,0c4.3,0.2,7.3,0.2,9,0c0.6-0.1,1,0.1,1,0.4C458.1,48,458.1,48.2,458.1,48.4z"/>
		<path class="st1" d="M487,72.6c-0.4,1.9-0.7,3.7-0.9,5.6c0,0.3-0.5,0.4-1.4,0.4c-2.4-0.1-5.5-0.2-9.3-0.2c-4.2,0-7.7,0.1-10.7,0.2
			c-0.7,0-1-0.2-1-0.8c0-0.4,0.3-0.6,1-0.7c0.9-0.1,1.5-0.3,1.8-0.5c0.3-0.3,0.5-1,0.5-2V53c0-1.5-0.1-2.4-0.4-2.8s-1-0.8-2.2-1.1
			c-0.6-0.2-0.9-0.6-0.7-1.1c0.1-0.3,0.2-0.5,0.4-0.5c0.2,0,0.6,0,1.2,0.1c1,0.2,3.6,0.2,7.8,0.2c4.2,0,7.8-0.1,10.9-0.3
			c1-0.1,1.5,0,1.5,0.2c0,0.1,0,0.2,0,0.2c-0.3,1.5-0.5,3.3-0.4,5.3c0,0.5-0.2,0.7-0.7,0.7c-0.4,0-0.7-0.2-0.9-0.6
			c-0.4-1.1-0.8-1.8-1.1-2.2c-0.5-0.6-1.2-1-2.2-1.1c-0.8-0.1-3.4-0.2-7.9-0.2c-0.5,0-0.8,0.1-1,0.3c-0.1,0.1-0.1,0.3-0.1,0.7v9.8
			c0,0.4,0.2,0.6,0.7,0.6c1.4,0,3.5-0.1,6.2-0.3c0.5,0,0.8-0.3,1-0.7c0.2-0.3,0.4-1,0.5-1.9c0.1-0.7,0.5-0.9,1.1-0.7
			c0.5,0.1,0.8,0.3,0.7,0.7c-0.4,2.1-0.6,4.9-0.4,8.3c0,0.4-0.2,0.6-0.8,0.7c-0.5,0.1-0.7-0.2-0.8-0.8c-0.2-1.2-0.4-2-0.6-2.4
			s-0.7-0.6-1.4-0.7c-1.3-0.2-3.2-0.2-5.8-0.2c-0.3,0-0.4,0.1-0.4,0.3v10.2c0,1.5,0.8,2.3,2.5,2.7c0.4,0.1,1.9,0.1,4.4,0.1
			c3.9,0,6.3-1.4,7.3-4.1c0.2-0.6,0.6-0.9,1.1-0.6C486.9,71.8,487.1,72.1,487,72.6z"/>
		<path d="M538.5,63c0,4.5-1.7,8.3-5,11.5c-3.3,3.1-7.2,4.6-11.8,4.6c-4.8,0-8.9-1.5-12.1-4.4c-3.3-3-4.9-6.9-4.9-11.6
			c0-4.6,1.7-8.5,5-11.6c3.3-3.1,7.3-4.6,12-4.6c4.8,0,8.8,1.5,12,4.5C536.8,54.5,538.5,58.3,538.5,63z M533.7,63.8
			c0-4.5-1.2-8.1-3.7-10.8c-2.4-2.5-5.5-3.8-9.5-3.8c-3.3,0-5.9,1.2-8,3.6s-3.1,5.5-3.1,9.4c0,4.6,1.2,8.2,3.6,10.9
			c2.4,2.6,5.6,3.8,9.6,3.8c3.3,0,5.9-1.2,8-3.6S533.7,67.7,533.7,63.8z"/>
		<path d="M580,48.1c0,0.4-0.4,0.7-1.3,1c-1.9,0.5-2.8,1.6-2.8,3.3v16.9c0,3.5,0,6.4,0.1,8.6c0,0.8-0.2,1.3-0.6,1.4
			c-0.7,0.2-1.3-0.2-1.8-1.1c-0.8-1.5-3.8-5.1-9.2-11c-4.5-4.9-8.8-9.4-13-13.6c-0.1-0.1-0.3-0.2-0.4-0.1c-0.2,0.1-0.2,0.3-0.2,0.5
			v19.2c0,2.1,1,3.3,3.1,3.7c0.9,0.2,1.3,0.5,1.3,0.9c0,0.6-0.5,0.9-1.5,0.8c-3.7-0.2-6.6-0.2-8.7,0c-0.7,0-1-0.2-1-0.8
			c0-0.3,0.3-0.6,1-0.7c1.2-0.3,2-0.7,2.4-1.1s0.6-1.3,0.6-2.5V52.6c0-0.9-0.2-1.6-0.6-2.1c-0.4-0.4-1.1-0.9-2.1-1.4
			c-0.8-0.4-1.1-0.7-1.1-1.1c0-0.4,0.4-0.6,1.1-0.5c2,0.3,3.8,0.3,5.3,0.2c0.8-0.1,1.5,0.2,2.1,0.9l19.6,20.9
			c0.3,0.3,0.4,0.4,0.5,0.4c0.1,0,0.2-0.2,0.2-0.6V52.4c0-2-1-3.2-3.1-3.5c-0.7-0.1-1.1-0.3-1.1-0.7c0-0.7,0.3-0.9,1-0.9
			c2.6,0.3,5.4,0.3,8.6-0.1c0.5-0.1,0.9-0.1,1.1,0C579.9,47.3,580,47.6,580,48.1z"/>
		<path d="M608.6,72.6c-0.5,2-0.8,3.9-0.8,5.6c0,0.3-0.5,0.4-1.5,0.4c-2.5-0.1-5.5-0.2-9.2-0.2c-3.9,0-7.3,0.1-10.4,0.2
			c-0.5,0-0.7,0-0.8-0.1s-0.2-0.3-0.2-0.7c0-0.4,0.3-0.6,1-0.7c1.5-0.2,2.3-1,2.3-2.5V53c0-1.1-0.1-1.9-0.4-2.4
			c-0.4-0.6-1-1.1-2.1-1.5c-0.6-0.2-0.9-0.6-0.8-1.1c0-0.3,0.1-0.5,0.3-0.6s0.6-0.1,1.2,0c2.3,0.3,5,0.2,8.2,0c0.6,0,0.9-0.1,1,0
			c0.3,0,0.5,0.3,0.5,0.6c0,0.4-0.1,0.7-0.3,0.9c-0.1,0.1-0.4,0.2-1,0.3c-1.1,0.3-1.8,0.5-2.1,0.9s-0.4,1-0.4,2v21
			c0,1.3,0.4,2.2,1.3,2.7s2.5,0.7,4.8,0.7c2.2,0,3.9-0.3,4.9-0.9s1.9-1.6,2.6-3.2c0.3-0.6,0.6-0.8,1.1-0.6
			C608.5,71.8,608.7,72.1,608.6,72.6z"/>
		<path d="M625.7,48.1c0,0.4-0.4,0.7-1.3,1c-1.9,0.6-2.8,1.3-2.8,2.2v22.8c0,1.5,0.9,2.4,2.6,2.7c0.9,0.2,1.3,0.5,1.3,0.9
			c0,0.4-0.1,0.6-0.2,0.7s-0.6,0.1-1.2,0.1c-4.1-0.2-7.3-0.2-9.6,0c-0.6,0-0.9-0.1-1-0.3c0-0.1,0-0.3,0-0.5c0-0.3,0.4-0.5,1.1-0.7
			c1.3-0.3,2.1-0.5,2.3-0.6c0.5-0.3,0.8-1,0.8-1.9v-23c0-1.3-0.9-2.1-2.6-2.4c-0.7-0.1-1.1-0.4-1.1-0.7c0-0.5,0.1-0.7,0.2-0.8
			s0.4-0.1,0.8-0.1c3,0.3,6.2,0.3,9.4-0.1c0.6-0.1,1-0.1,1.1-0.1C625.6,47.3,625.7,47.6,625.7,48.1z"/>
		<path d="M667.6,48.1c0,0.4-0.4,0.7-1.3,1c-1.9,0.5-2.8,1.6-2.8,3.3v16.9c0,3.5,0,6.4,0.1,8.6c0,0.8-0.2,1.3-0.6,1.4
			c-0.7,0.2-1.3-0.2-1.8-1.1c-0.8-1.5-3.8-5.1-9.2-11c-4.5-4.9-8.8-9.4-13-13.6c-0.1-0.1-0.3-0.2-0.4-0.1c-0.2,0.1-0.2,0.3-0.2,0.5
			v19.2c0,2.1,1,3.3,3.1,3.7c0.9,0.2,1.3,0.5,1.3,0.9c0,0.6-0.5,0.9-1.5,0.8c-3.7-0.2-6.6-0.2-8.7,0c-0.7,0-1-0.2-1-0.8
			c0-0.3,0.3-0.6,1-0.7c1.2-0.3,2-0.7,2.4-1.1s0.6-1.3,0.6-2.5V52.6c0-0.9-0.2-1.6-0.6-2.1c-0.4-0.4-1.1-0.9-2.1-1.4
			c-0.8-0.4-1.1-0.7-1.1-1.1c0-0.4,0.4-0.6,1.1-0.5c2,0.3,3.8,0.3,5.3,0.2c0.8-0.1,1.5,0.2,2.1,0.9L660,69.5
			c0.3,0.3,0.4,0.4,0.5,0.4c0.1,0,0.2-0.2,0.2-0.6V52.4c0-2-1-3.2-3.1-3.5c-0.7-0.1-1.1-0.3-1.1-0.7c0-0.7,0.3-0.9,1-0.9
			c2.6,0.3,5.4,0.3,8.6-0.1c0.5-0.1,0.9-0.1,1.1,0C667.5,47.3,667.6,47.6,667.6,48.1z"/>
		<path d="M696.7,72.6c-0.4,1.9-0.7,3.7-0.9,5.6c0,0.3-0.5,0.4-1.4,0.4c-2.4-0.1-5.5-0.2-9.3-0.2c-4.2,0-7.7,0.1-10.7,0.2
			c-0.7,0-1-0.2-1-0.8c0-0.4,0.3-0.6,1-0.7c0.9-0.1,1.5-0.3,1.8-0.5c0.3-0.3,0.5-1,0.5-2V53c0-1.5-0.1-2.4-0.4-2.8s-1-0.8-2.2-1.1
			c-0.6-0.2-0.9-0.6-0.7-1.1c0.1-0.3,0.2-0.5,0.4-0.5c0.2,0,0.6,0,1.2,0.1c1,0.2,3.6,0.2,7.8,0.2c4.2,0,7.8-0.1,10.9-0.3
			c1-0.1,1.5,0,1.5,0.2c0,0.1,0,0.2,0,0.2c-0.3,1.5-0.5,3.3-0.4,5.3c0,0.5-0.2,0.7-0.7,0.7c-0.4,0-0.7-0.2-0.9-0.6
			c-0.4-1.1-0.8-1.8-1.1-2.2c-0.5-0.6-1.2-1-2.2-1.1c-0.8-0.1-3.4-0.2-7.9-0.2c-0.5,0-0.8,0.1-1,0.3c-0.1,0.1-0.1,0.3-0.1,0.7v9.8
			c0,0.4,0.2,0.6,0.7,0.6c1.4,0,3.5-0.1,6.2-0.3c0.5,0,0.8-0.3,1-0.7c0.2-0.3,0.4-1,0.5-1.9c0.1-0.7,0.5-0.9,1.1-0.7
			c0.5,0.1,0.8,0.3,0.7,0.7c-0.4,2.1-0.6,4.9-0.4,8.3c0,0.4-0.2,0.6-0.8,0.7c-0.5,0.1-0.7-0.2-0.8-0.8c-0.2-1.2-0.4-2-0.6-2.4
			s-0.7-0.6-1.4-0.7c-1.3-0.2-3.2-0.2-5.8-0.2c-0.3,0-0.4,0.1-0.4,0.3v10.2c0,1.5,0.8,2.3,2.5,2.7c0.4,0.1,1.9,0.1,4.4,0.1
			c3.9,0,6.3-1.4,7.3-4.1c0.2-0.6,0.6-0.9,1.1-0.6C696.6,71.8,696.8,72.1,696.7,72.6z"/>
	</g>
</g>
<g id="Ebene_3">
	<g>
		<linearGradient id="SVGID_1_" gradientUnits="userSpaceOnUse" x1="788.9886" y1="59.0002" x2="785.1371" y2="59.0002">
			<stop  offset="0" style="stop-color:#020203"/>
			<stop  offset="1" style="stop-color:#020203;stop-opacity:0"/>
		</linearGradient>
		<path class="st2" d="M34.2,71.3l10.7-10.2c0,0-1.7-7.2-3.3-14.2c-10.2-1.1-12.9,2.2-12.9,2.2s-2.9,3.7-4,13.9
			C25.6,65.8,34.2,71.3,34.2,71.3z"/>
		<linearGradient id="SVGID_2_" gradientUnits="userSpaceOnUse" x1="839.3276" y1="68.7259" x2="835.407" y2="68.7259">
			<stop  offset="0" style="stop-color:#020203"/>
			<stop  offset="1" style="stop-color:#020203;stop-opacity:0"/>
		</linearGradient>
		<path class="st3" d="M61.2,66.4c0,0,2.8-4.1,11-9.6c6.8,2.9,9.7,7.8,9.7,7.8s-0.3,7.4-4.7,14.7c-7.4,2.5-12.6,1-12.6,1L61.2,66.4z
			"/>
		<linearGradient id="SVGID_3_" gradientUnits="userSpaceOnUse" x1="895.1664" y1="35.4069" x2="890.9191" y2="35.4069">
			<stop  offset="0" style="stop-color:#020203"/>
			<stop  offset="1" style="stop-color:#020203;stop-opacity:0"/>
		</linearGradient>
		<path class="st4" d="M53.9,36.9c0,0-0.5-3.4-1.9-6.6c14-5.6,22.9,7.2,22.9,7.2s-2.9,2.2-6.5,4.3C61.6,37.1,53.9,36.9,53.9,36.9z"
			/>
		<linearGradient id="SVGID_4_" gradientUnits="userSpaceOnUse" x1="864.3267" y1="92.2461" x2="860.1382" y2="92.2461">
			<stop  offset="0" style="stop-color:#020203"/>
			<stop  offset="1" style="stop-color:#020203;stop-opacity:0"/>
		</linearGradient>
		<path class="st5" d="M38,85.4c0,0,4.9,4.8,14.9,5.2c0.7,1.8,2.5,6.5,2.5,6.5s-4.6,2-7.2,2c-4-0.3-11-3.8-11-3.8s-4.1-4.5-4.3-5.1
			C34.7,88.5,38,85.4,38,85.4z"/>
		<linearGradient id="SVGID_5_" gradientUnits="userSpaceOnUse" x1="299.3784" y1="58.2895" x2="298.3052" y2="58.2895">
			<stop  offset="0" style="stop-color:#020203"/>
			<stop  offset="1" style="stop-color:#020203;stop-opacity:0"/>
		</linearGradient>
		<path class="st6" d="M88.1,53.3c0.3-0.1,0.6-0.2,0.6-0.2s1.5,5,1.5,10.5c-0.8-2.3-2.1-4.4-2.1-4.4S88.7,57.3,88.1,53.3z"/>
		<linearGradient id="SVGID_6_" gradientUnits="userSpaceOnUse" x1="389.811" y1="88.9081" x2="388.2263" y2="88.9081">
			<stop  offset="0" style="stop-color:#020203"/>
			<stop  offset="1" style="stop-color:#020203;stop-opacity:0"/>
		</linearGradient>
		<path class="st7" d="M82.2,86.3c-3,3.5-4.1,4.2-5.3,5.2c-0.1,0.1-0.2,0-0.1-0.1c0,0,2-2.8,2.8-4.3c0.1,0.3,0,0,0,0
			c0.2,0,1.1-0.3,2.5-1C82.2,86.2,82.3,86.3,82.2,86.3z"/>
		<linearGradient id="SVGID_7_" gradientUnits="userSpaceOnUse" x1="207.9529" y1="69.0199" x2="206.9877" y2="69.0199">
			<stop  offset="0" style="stop-color:#020203"/>
			<stop  offset="1" style="stop-color:#020203;stop-opacity:0"/>
		</linearGradient>
		<path class="st8" d="M19.2,72.2c0,0,0.3-3.5,0.4-4c-0.1,0-0.9-1.4-1.4-2.4C18.4,69,19.2,72.2,19.2,72.2z"/>
		<linearGradient id="SVGID_8_" gradientUnits="userSpaceOnUse" x1="382.7557" y1="38.288" x2="380.9498" y2="38.288">
			<stop  offset="0" style="stop-color:#020203"/>
			<stop  offset="1" style="stop-color:#020203;stop-opacity:0"/>
		</linearGradient>
		<path class="st9" d="M28.7,40.6c1.1-1.7,2-3.3,3.9-5.7c-2.9,1.6-6.9,6.9-6.9,6.9S27.5,40.8,28.7,40.6z"/>
	</g>
</g>
</svg>
