<svg width="720" height="80" xmlns="http://www.w3.org/2000/svg">
 <style type="text/css">.st0{fill:#1C84C7;}
	.st1{fill:#FFFFFF;}
	.st2{fill:#010202;stroke:url(#SVGID_1_);stroke-width:4.874;stroke-linejoin:round;}
	.st3{fill:#010202;stroke:url(#SVGID_2_);stroke-width:4.874;stroke-linejoin:round;}
	.st4{fill:#010202;stroke:url(#SVGID_3_);stroke-width:4.874;stroke-linejoin:round;}
	.st5{fill:#010202;stroke:url(#SVGID_4_);stroke-width:4.874;stroke-linejoin:round;}
	.st6{fill:#010202;stroke:url(#SVGID_5_);stroke-width:4.874;stroke-linejoin:round;}
	.st7{fill:#010202;stroke:url(#SVGID_6_);stroke-width:4.874;stroke-linejoin:round;}
	.st8{fill:#010202;stroke:url(#SVGID_7_);stroke-width:4.874;stroke-linejoin:round;}
	.st9{fill:#010202;stroke:url(#SVGID_8_);stroke-width:4.874;stroke-linejoin:round;}</style>

 <g>
  <title>background</title>
  <rect fill="none" id="canvas_background" height="82" width="722" y="-1" x="-1"/>
 </g>
 <g>
  <title>Layer 1</title>
  <g id="Ebene_2">
   <polygon id="svg_1" points="20.600000381469727,21.200000762939453 7,57.19999694824219 477.8999938964844,57.19999694824219 491.5,21.200000762939453 " class="st0"/>
   <polygon id="svg_2" points="100.0999984741211,21.200000762939453 86.5999984741211,57.19999694824219 492.5,57.19999694824219 506.1000061035156,21.200000762939453 " class="st0"/>
  </g>
  <g id="Ebene_1">
   <g id="svg_3">
    <path id="svg_4" d="m143.5,53.699997c0,0.400002 -0.100006,0.600006 -0.199997,0.700005s-0.600006,0.099998 -1.300003,0.099998c-4.100006,-0.199997 -7.199997,-0.199997 -9.5,0c-0.699997,0 -1.100006,-0.199997 -1.100006,-0.800003c0,-0.299995 0.400009,-0.599998 1.100006,-0.699997c1.399994,-0.300003 2.199997,-0.599998 2.5,-0.800003c0.300003,-0.299995 0.5,-0.899994 0.5,-1.799995l-0.800003,-20c0,-0.400002 -0.099991,-0.600002 -0.300003,-0.600002c-0.199997,0 -0.299988,0.100002 -0.399994,0.400002c-2.800003,5.599998 -4.699997,9.599998 -5.899994,11.899998c-2.300003,4.700005 -3.900009,8.300003 -4.800003,10.700005c-0.400002,1.099998 -0.600006,1.699997 -0.700005,1.799995c-0.199997,0.300003 -0.400002,0.5 -0.699997,0.599998c-0.200005,0 -0.300003,0.100006 -0.400002,0.100006c-0.300003,0 -0.599998,-0.5 -0.800003,-1.400002c-1,-3.5 -4.399994,-11.400002 -10.199997,-23.5c-0.199997,-0.400002 -0.400002,-0.5 -0.599998,-0.5c-0.300003,0 -0.400002,0.199997 -0.400002,0.699997c-0.199997,4.600002 -0.5,10.800003 -0.800003,18.5c-0.099998,2.099998 0.900002,3.300003 3.100006,3.700005c0.899994,0.199997 1.299995,0.5 1.299995,0.899994c0,0.400002 -0.099998,0.600006 -0.199997,0.700005s-0.599998,0.099998 -1.200005,0.099998c-3.599998,-0.099998 -6.399994,-0.099998 -8.399994,0c-0.700005,0 -1.100006,-0.199997 -1.100006,-0.800003c0,-0.299995 0.400002,-0.599998 1.100006,-0.699997c1.299995,-0.300003 2.099998,-0.699997 2.5,-1.199997c0.299995,-0.400002 0.5,-1.200005 0.5,-2.400002l0.799995,-20.700001c0,-0.900002 -0.099998,-1.600002 -0.5,-2.100002c-0.299995,-0.399998 -1,-0.899998 -2.099998,-1.399998c-0.800003,-0.299999 -1.099998,-0.700001 -1.099998,-1.100002c0,-0.399998 0.400002,-0.599998 1,-0.5c2.400002,0.300003 4.5,0.400002 6.299995,0.200001c0.700005,-0.099998 1.200005,-0.099998 1.400002,0s0.5,0.400002 0.700005,0.799999l9.799995,22.400002c0.099998,0.300003 0.200005,0.5 0.300003,0.5s0.199997,-0.199997 0.400002,-0.599998c0.599998,-1.300003 4.099998,-8.60001 10.5,-21.700012c0.399994,-0.799999 0.899994,-1.200001 1.5,-1.200001c1.5,0 3.5,-0.199997 6.099991,-0.599998c0.600006,-0.099998 1,-0.099998 1.100006,-0.099998c0.300003,0.099998 0.399994,0.399998 0.399994,0.899998c0,0.400002 -0.399994,0.700001 -1.199997,1c-2,0.600002 -2.899994,1.299999 -2.899994,2.200001l0.899994,22.799999c0,0.900002 0.300003,1.5 0.699997,1.900002c0.300003,0.299995 1,0.599998 1.900009,0.799995c0.800003,0.000015 1.199997,0.300011 1.199997,0.800011z" class="st1"/>
    <path id="svg_5" d="m183.5,24.400002c0,0.299999 -0.399994,0.599998 -1.100006,0.699997c-1.199997,0.300003 -2,0.600002 -2.299988,0.800003c-0.400009,0.399998 -0.700012,1.099998 -0.700012,2.199997l0,13.400002c0,4.300003 -1.099991,7.599998 -3.399994,9.900002c-2.300003,2.400002 -5.600006,3.599998 -10,3.599998c-9.199997,0 -13.800003,-4.300003 -13.800003,-13l0,-14c0,-1.5 -0.899994,-2.400002 -2.599991,-2.700001c-0.600006,-0.099998 -1,-0.200001 -1.100006,-0.299999s-0.199997,-0.299999 -0.199997,-0.599998c0,-0.5 0.099991,-0.800003 0.399994,-0.800003c0.100006,0 0.5,-0.099998 1.100006,0c4.199997,0.200001 7.399994,0.200001 9.599991,0c0.5,0 0.800003,0 0.900009,0.100002s0.199997,0.399998 0.199997,0.799999c0,0.299999 -0.300003,0.599998 -1,0.700001c-1.300003,0.299999 -2.100006,0.5 -2.300003,0.599998c-0.5,0.299999 -0.800003,1 -0.800003,1.900002l0,13.499996c0,4 0.800003,6.900002 2.5,8.800003s4.300003,2.800003 8,2.800003c6.300003,0 9.400009,-3.600006 9.400009,-10.900002l0,-13.400002c0,-1.099998 -0.300003,-1.799999 -0.800003,-2.299999c-0.399994,-0.400002 -1.199997,-0.700001 -2.300003,-0.900002c-0.899994,-0.200001 -1.300003,-0.399998 -1.300003,-0.899998c0,-0.5 0.100006,-0.800003 0.400009,-0.800003c0.099991,0 0.5,0 1.099991,0c4.300003,0.200001 7.300003,0.200001 9,0c0.600006,-0.099998 1,0.100002 1,0.400002c0.100006,0 0.100006,0.200001 0.100006,0.400002z" class="st1"/>
    <path id="svg_6" d="m216.300003,54.5c0,0.400002 -0.300003,0.5 -0.900009,0.5c-5.599991,0 -10.899994,-4.800003 -15.899994,-14.400002c-1.899994,0.099998 -2.899994,0.099998 -3.100006,0.099998l0,9.800003c0,0.699997 0.200012,1.199997 0.5,1.5s1.200012,0.5 2.400009,0.599998c0.899994,0.099998 1.300003,0.400002 1.300003,0.900002c0,0.400002 -0.100006,0.599998 -0.200012,0.699997s-0.5,0.100006 -1.199997,0.100006c-2.800003,-0.100006 -5.899994,-0.100006 -9.300003,0.199997c-0.699997,0 -1,-0.199997 -1,-0.800003c0,-0.399994 0.300003,-0.599998 1,-0.699997c1.5,-0.199997 2.300003,-1 2.300003,-2.5l0,-22.400002c0,-1.5 -0.899994,-2.399998 -2.599991,-2.699997c-0.900009,-0.200001 -1.300003,-0.400002 -1.300003,-0.800003c0,-0.599998 0.300003,-0.899998 0.899994,-0.899998c0.199997,0 0.400009,0 0.600006,0c0.599991,0.099998 1.599991,0.099998 2.899994,0.099998c0.400009,0 1.5,0 3.300003,-0.099998s3.399994,-0.100002 4.899994,-0.100002c3.100006,0 5.600006,0.600002 7.400009,1.800003c2,1.299999 3,3.199997 3,5.699997c0,4.300003 -2.5,7.200001 -7.5,8.600002c1.599991,3.600002 3.5,6.700001 5.599991,9.299999c2.200012,2.699997 4.200012,4.099998 6,4.400002c0.600006,0.199997 0.900009,0.5 0.900009,1.099998zm-9.400009,-22.700001c0,-2.299999 -0.600006,-4 -1.800003,-4.899998s-3.100006,-1.5 -5.699997,-1.5c-1.199997,0 -2,0.199997 -2.400009,0.5s-0.599991,1 -0.599991,2.099998l0,11c3.800003,-0.099998 6.5,-0.799999 8.199997,-2c1.500015,-1.099998 2.300003,-2.799999 2.300003,-5.200001z" class="st1"/>
    <path id="svg_7" d="m250,53.599998c0,0.400002 -0.100006,0.599998 -0.199997,0.700005s-0.400009,0.099998 -0.800003,0.099998c-4,-0.200005 -7.300003,-0.099998 -9.699997,0.199997c-0.600006,0.099998 -0.900009,0 -1,-0.400002c-0.100006,-0.399994 0.199997,-0.699997 1,-1.099998c0.399994,-0.199997 0.699997,-0.599998 0.699997,-1.099998s-0.300003,-1.099998 -0.800003,-1.599998c-2.199997,-2.300003 -5.899994,-5.900002 -11.300003,-11l0,11c0,0.900002 0.900009,1.599998 2.800003,2.099998c0.800003,0.199997 1.199997,0.5 1.199997,0.900002c0,0.400002 -0.099991,0.599998 -0.199997,0.699997s-0.5,0.099998 -1.099991,0.099998c-2.800003,-0.099998 -5.800003,-0.099998 -9.200012,0.200005c-0.599991,0 -1,-0.200005 -1,-0.800003c0,-0.400002 0.300003,-0.599998 1,-0.699997c1.5,-0.200005 2.200012,-1 2.200012,-2.5l0,-22.300003c0,-1.5 -0.800003,-2.399998 -2.5,-2.699997c-0.600006,-0.100002 -0.900009,-0.200001 -1.100006,-0.300003s-0.199997,-0.199997 -0.199997,-0.5c0,-0.399998 0.099991,-0.599998 0.199997,-0.699997s0.5,-0.100002 1.199997,-0.100002c3.900009,0.200001 7,0.200001 9.400009,0c0.699997,-0.099998 1,0.200001 1,0.799999c0,0.300003 -0.300003,0.5 -1,0.700001c-1.200012,0.299999 -1.900009,0.5 -2.200012,0.700001c-0.5,0.299999 -0.699997,0.900002 -0.699997,1.900002l0,10.099998c4.400009,-3.700001 8,-6.799999 10.699997,-9.200001c0.800003,-0.700001 1.200012,-1.399998 1.200012,-2s-0.400009,-1.099998 -1.300003,-1.399998c-0.5,-0.200001 -0.800003,-0.300003 -0.800003,-0.300003c-0.199997,-0.099998 -0.300003,-0.399998 -0.300003,-0.699997c0,-0.400002 0.100006,-0.600002 0.300003,-0.600002c0.199997,-0.099998 0.5,-0.099998 1.100006,0c3,0.299999 5.799988,0.299999 8.299988,0.100002c0.400009,0 0.600006,0 0.800003,0.099998s0.199997,0.299999 0.300003,0.700001c0.100006,0.299999 0,0.5 -0.100006,0.599998s-0.5,0.299999 -1,0.400002c-1.5,0.5 -3.299988,1.599998 -5.599991,3.399998c-1.699997,1.300003 -5.100006,4.200001 -10.400009,8.700001c5.700012,5.500004 10.200012,9.600002 13.5,12.500004c1.400009,1.299995 2.900009,2.099998 4.400009,2.5c0.899994,0.199997 1.199997,0.5 1.199997,0.799995z" class="st1"/>
    <path id="svg_8" d="m286.600006,54c-0.100006,0.400002 -0.199982,0.699997 -0.299988,0.800003c-0.100006,0.099998 -0.300018,0 -0.700012,0c-2.199982,-0.400002 -5.5,-0.5 -9.799988,-0.100006c-0.800018,0.100006 -1.300018,-0.099998 -1.300018,-0.5c-0.099976,-0.399994 0.200012,-0.799995 0.800018,-1c1.699982,-0.699997 2.5,-1.299995 2.5,-1.899994c0,-0.200005 -0.100006,-0.600006 -0.300018,-1c-1.199982,-2.800003 -2.099976,-5 -2.899994,-6.700005c-1.100006,0.099998 -3.100006,0.099998 -5.899994,0.099998c-2.299988,0 -4.299988,-0.099998 -5.899994,-0.199997c-0.5,1.300003 -1.300018,3.199997 -2.300018,5.599998c-0.199982,0.5 -0.299988,1 -0.299988,1.5c0,0.900002 0.5,1.5 1.399994,1.900002c1.5,0.599998 2.200012,1.099998 2.200012,1.400002c0,0.5 -0.5,0.699997 -1.5,0.599998c-2.899994,-0.300003 -5.700012,-0.199997 -8.200012,0.300003c-0.699997,0.099998 -1,-0.100006 -1.099991,-0.700005c-0.100006,-0.400002 0.399994,-0.799995 1.5,-1.299995c1.199997,-0.5 2.099991,-1.600006 2.900009,-3.400002c3,-6.599998 5,-11 5.899994,-13c2.199982,-5 3.699982,-9.100002 4.600006,-12.200001c0.099976,-0.5 0.699982,-0.900002 1.899994,-1.400002c0.299988,-0.099998 0.600006,0.400002 1,1.400002c3.399994,8.099998 7.199982,16.799999 11.299988,26.100002c0.700012,1.5 1.800018,2.399994 3.399994,2.899994c0.799988,0.100006 1.200012,0.400002 1.100006,0.800003zm-12.800018,-12.400002c-1,-2.299999 -2.600006,-6 -4.799988,-10.899998c-0.100006,-0.299999 -0.300018,-0.400002 -0.400024,-0.400002s-0.299988,0.100002 -0.399994,0.400002l-4.5,10.799999c1.700012,0.099998 3.5,0.199997 5.600006,0.199997c1.300018,0 2.800018,0 4.5,-0.099998z" class="st1"/>
    <path id="svg_9" d="m314.5,48.599998c-0.5,2 -0.799988,3.900002 -0.799988,5.599998c0,0.300003 -0.5,0.400002 -1.5,0.400002c-2.5,-0.099998 -5.5,-0.199997 -9.200012,-0.199997c-3.899994,0 -7.299988,0.099998 -10.399994,0.199997c-0.5,0 -0.700012,0 -0.800018,-0.099998s-0.199982,-0.300003 -0.199982,-0.699997c0,-0.400002 0.299988,-0.600006 1,-0.700005c1.5,-0.199997 2.299988,-1 2.299988,-2.5l0,-21.599998c0,-1.099998 -0.100006,-1.900002 -0.399994,-2.400002c-0.399994,-0.599998 -1,-1.099998 -2.100006,-1.5c-0.600006,-0.199997 -0.899994,-0.599998 -0.799988,-1.099998c0,-0.299999 0.100006,-0.5 0.299988,-0.599998s0.600006,-0.100002 1.200012,0c2.299988,0.299999 5,0.199997 8.199982,0c0.600006,0 0.900024,-0.100002 1,0c0.300018,0 0.5,0.299999 0.5,0.599998c0,0.400002 -0.099976,0.700001 -0.299988,0.900002c-0.100006,0.099998 -0.399994,0.199997 -1,0.299999c-1.100006,0.299999 -1.799988,0.5 -2.100006,0.899998s-0.399994,1 -0.399994,2l0,21c0,1.300003 0.399994,2.200005 1.299988,2.700005s2.5,0.699997 4.800018,0.699997c2.199982,0 3.899994,-0.300003 4.899994,-0.900002s1.899994,-1.599998 2.600006,-3.199997c0.299988,-0.599998 0.600006,-0.800003 1.100006,-0.599998c0.699982,0 0.899994,0.299995 0.799988,0.799995z" class="st1"/>
    <path id="svg_10" d="m342.899994,48.599998c-0.399994,1.900002 -0.700012,3.700005 -0.899994,5.599998c0,0.300003 -0.5,0.400002 -1.400024,0.400002c-2.399994,-0.099998 -5.5,-0.199997 -9.299988,-0.199997c-4.200012,0 -7.700012,0.099998 -10.700012,0.199997c-0.699982,0 -1,-0.199997 -1,-0.799995c0,-0.400002 0.300018,-0.600006 1,-0.700005c0.900024,-0.099998 1.5,-0.299995 1.800018,-0.5c0.299988,-0.299995 0.5,-1 0.5,-2l0,-21.599998c0,-1.5 -0.100006,-2.400002 -0.399994,-2.799999s-1,-0.799999 -2.200012,-1.100002c-0.600006,-0.199997 -0.899994,-0.599998 -0.700012,-1.099998c0.100006,-0.299999 0.200012,-0.5 0.400024,-0.5c0.199982,0 0.599976,0 1.199982,0.099998c1,0.200001 3.600006,0.200001 7.800018,0.200001c4.199982,0 7.799988,-0.099998 10.899994,-0.299999c1,-0.099998 1.5,0 1.5,0.200001c0,0.099998 0,0.200001 0,0.200001c-0.300018,1.5 -0.5,3.299999 -0.399994,5.299999c0,0.5 -0.200012,0.700001 -0.700012,0.700001c-0.399994,0 -0.700012,-0.200001 -0.899994,-0.600002c-0.399994,-1.099998 -0.800018,-1.799999 -1.100006,-2.200001c-0.5,-0.599998 -1.200012,-1 -2.200012,-1.099998c-0.799988,-0.099998 -3.399994,-0.200001 -7.899994,-0.200001c-0.5,0 -0.799988,0.100002 -1,0.299999c-0.100006,0.100002 -0.100006,0.300003 -0.100006,0.700001l0,9.799999c0,0.400002 0.200012,0.600002 0.700012,0.600002c1.399994,0 3.5,-0.100002 6.200012,-0.299999c0.5,0 0.799988,-0.300003 1,-0.700001c0.199982,-0.299999 0.399994,-1 0.5,-1.900002c0.099976,-0.700001 0.5,-0.899998 1.099976,-0.700001c0.5,0.100002 0.800018,0.300003 0.700012,0.700001c-0.399994,2.100002 -0.600006,4.900002 -0.399994,8.299999c0,0.400002 -0.200012,0.599998 -0.800018,0.700005c-0.5,0.099998 -0.699982,-0.200005 -0.799988,-0.800003c-0.200012,-1.199997 -0.399994,-2 -0.600006,-2.400002s-0.699982,-0.599998 -1.399994,-0.699997c-1.299988,-0.200001 -3.200012,-0.200001 -5.799988,-0.200001c-0.300018,0 -0.400024,0.099998 -0.400024,0.299999l0,10.199997c0,1.5 0.800018,2.300003 2.5,2.700005c0.400024,0.099998 1.900024,0.099998 4.400024,0.099998c3.899994,0 6.299988,-1.400002 7.299988,-4.099998c0.200012,-0.599998 0.600006,-0.900002 1.100006,-0.599998c0.5,0 0.600006,0.299995 0.5,0.799995z" class="st1"/>
    <path id="svg_11" d="m380.899994,54c-0.100006,0.400002 -0.200012,0.699997 -0.300018,0.800003c-0.099976,0.099998 -0.299988,0 -0.699982,0c-2.200012,-0.400002 -5.5,-0.5 -9.800018,-0.100006c-0.799988,0.100006 -1.299988,-0.099998 -1.299988,-0.5c-0.100006,-0.399994 0.200012,-0.799995 0.799988,-1c1.700012,-0.699997 2.5,-1.299995 2.5,-1.899994c0,-0.200005 -0.099976,-0.600006 -0.299988,-1c-1.200012,-2.800003 -2.100006,-5 -2.899994,-6.700005c-1.100006,0.099998 -3.100006,0.099998 -5.899994,0.099998c-2.300018,0 -4.300018,-0.099998 -5.900024,-0.199997c-0.5,1.300003 -1.299988,3.199997 -2.299988,5.599998c-0.200012,0.5 -0.299988,1 -0.299988,1.5c0,0.900002 0.5,1.5 1.399994,1.900002c1.5,0.599998 2.199982,1.099998 2.199982,1.400002c0,0.5 -0.5,0.699997 -1.5,0.599998c-2.899994,-0.300003 -5.699982,-0.199997 -8.199982,0.300003c-0.700012,0.099998 -1,-0.100006 -1.100006,-0.700005c-0.100006,-0.400002 0.399994,-0.799995 1.5,-1.299995c1.200012,-0.5 2.100006,-1.600006 2.899994,-3.400002c3,-6.599998 5,-11 5.899994,-13c2.200012,-5 3.700012,-9.100002 4.600006,-12.200001c0.100006,-0.5 0.700012,-0.900002 1.899994,-1.400002c0.300018,-0.099998 0.600006,0.400002 1,1.400002c3.400024,8.099998 7.200012,16.799999 11.300018,26.100002c0.699982,1.5 1.799988,2.399994 3.399994,2.899994c0.900024,0.100006 1.200012,0.400002 1.100006,0.800003zm-12.699982,-12.400002c-1,-2.299999 -2.600006,-6 -4.799988,-10.899998c-0.100006,-0.299999 -0.300018,-0.400002 -0.400024,-0.400002s-0.299988,0.100002 -0.399994,0.400002l-4.5,10.799999c1.700012,0.099998 3.5,0.199997 5.600006,0.199997c1.299988,0 2.799988,0 4.5,-0.099998z" class="st1"/>
    <path id="svg_12" d="m419.100006,40.5c0,0.5 -0.399994,0.800003 -1.100006,0.900002c-1,0.199997 -1.599976,0.299995 -1.799988,0.299995c-0.600006,0.200005 -0.799988,0.700005 -0.799988,1.400002l0,7.300003c0,0.900002 -1.200012,1.900002 -3.600006,3c-2.700012,1.199997 -5.700012,1.799995 -9.100006,1.799995c-4.899994,0 -9,-1.5 -12.299988,-4.399994c-3.300018,-3 -5,-6.800003 -5,-11.400002c0,-4.700001 1.699982,-8.700001 5.099976,-11.800003c3.300018,-3 7.300018,-4.5 12,-4.5c3.600006,0 6.600006,0.400002 9.100006,1.300003c1.800018,0.599998 2.800018,1.299999 2.899994,1.899998c0.200012,1.200001 0.200012,2.900002 0.200012,5.299999c0,0.5 -0.299988,0.800003 -1,0.800003c-0.799988,0 -1.200012,-0.200001 -1.399994,-0.600002c-0.899994,-2.299999 -2.100006,-4 -3.600006,-5s-3.700012,-1.799999 -6.400024,-1.799999c-3.799988,0 -6.700012,1.099998 -8.799988,3.400002c-2.200012,2.399998 -3.300018,5.799999 -3.300018,10.299999c0,4.299999 1.300018,7.799999 3.800018,10.399998c2.399994,2.599998 5.5,3.800003 9.399994,3.800003c2,0 3.799988,-0.400002 5.5,-1.099998c1.600006,-0.700005 2.399994,-1.400002 2.399994,-2l0,-4.800003c0,-1.199997 -0.200012,-2 -0.700012,-2.5c-0.399994,-0.5 -1.199982,-0.900002 -2.399994,-1.199997c-0.899994,-0.300003 -1.299988,-0.600006 -1.299988,-1c0.100006,-0.400002 0.199982,-0.700005 0.299988,-0.800003s0.5,-0.099998 1.100006,0c3.299988,0.400002 6.600006,0.400002 9.700012,0.099998c0.199982,0 0.299988,0 0.399994,0c0.5,0 0.700012,0.300003 0.700012,0.900002z" class="st1"/>
    <path id="svg_13" d="m458.100006,24.400002c0,0.299999 -0.399994,0.599998 -1.100006,0.699997c-1.199982,0.300003 -2,0.600002 -2.299988,0.800003c-0.399994,0.399998 -0.700012,1.099998 -0.700012,2.199997l0,13.400002c0,4.300003 -1.099976,7.599998 -3.399994,9.900002c-2.299988,2.400002 -5.600006,3.599998 -10,3.599998c-9.199982,0 -13.799988,-4.300003 -13.799988,-13l0,-14c0,-1.5 -0.899994,-2.400002 -2.600006,-2.700001c-0.600006,-0.099998 -1,-0.200001 -1.100006,-0.299999s-0.199982,-0.299999 -0.199982,-0.599998c0,-0.5 0.099976,-0.800003 0.399994,-0.800003c0.100006,0 0.5,-0.099998 1.100006,0c4.199982,0.200001 7.399994,0.200001 9.599976,0c0.5,0 0.800018,0 0.900024,0.100002s0.199982,0.399998 0.199982,0.799999c0,0.299999 -0.299988,0.599998 -1,0.700001c-1.299988,0.299999 -2.100006,0.5 -2.299988,0.599998c-0.5,0.299999 -0.800018,1 -0.800018,1.900002l0,13.499996c0,4 0.800018,6.900002 2.5,8.800003s4.300018,2.800003 8,2.800003c6.300018,0 9.400024,-3.600006 9.400024,-10.900002l0,-13.400002c0,-1.099998 -0.300018,-1.799999 -0.800018,-2.299999c-0.399994,-0.400002 -1.199982,-0.700001 -2.299988,-0.900002c-0.899994,-0.200001 -1.300018,-0.399998 -1.300018,-0.899998c0,-0.5 0.100006,-0.800003 0.400024,-0.800003c0.099976,0 0.5,0 1.099976,0c4.300018,0.200001 7.300018,0.200001 9,0c0.600006,-0.099998 1,0.100002 1,0.400002c0.100006,0 0.100006,0.200001 0.100006,0.400002z" class="st1"/>
    <path id="svg_14" d="m487,48.599998c-0.399994,1.900002 -0.700012,3.700005 -0.899994,5.599998c0,0.300003 -0.5,0.400002 -1.399994,0.400002c-2.400024,-0.099998 -5.5,-0.199997 -9.300018,-0.199997c-4.199982,0 -7.699982,0.099998 -10.699982,0.199997c-0.700012,0 -1,-0.199997 -1,-0.799995c0,-0.400002 0.299988,-0.600006 1,-0.700005c0.899994,-0.099998 1.5,-0.299995 1.799988,-0.5c0.299988,-0.299995 0.5,-1 0.5,-2l0,-21.599998c0,-1.5 -0.100006,-2.400002 -0.399994,-2.799999s-1,-0.799999 -2.200012,-1.100002c-0.600006,-0.199997 -0.899994,-0.599998 -0.699982,-1.099998c0.099976,-0.299999 0.199982,-0.5 0.399994,-0.5c0.199982,0 0.600006,0 1.199982,0.099998c1,0.200001 3.600006,0.200001 7.800018,0.200001c4.199982,0 7.799988,-0.099998 10.899994,-0.299999c1,-0.099998 1.5,0 1.5,0.200001c0,0.099998 0,0.200001 0,0.200001c-0.299988,1.5 -0.5,3.299999 -0.399994,5.299999c0,0.5 -0.200012,0.700001 -0.700012,0.700001c-0.399994,0 -0.699982,-0.200001 -0.899994,-0.600002c-0.399994,-1.099998 -0.799988,-1.799999 -1.100006,-2.200001c-0.5,-0.599998 -1.199982,-1 -2.199982,-1.099998c-0.800018,-0.099998 -3.400024,-0.200001 -7.900024,-0.200001c-0.5,0 -0.799988,0.100002 -1,0.299999c-0.099976,0.100002 -0.099976,0.300003 -0.099976,0.700001l0,9.799999c0,0.400002 0.199982,0.600002 0.699982,0.600002c1.399994,0 3.5,-0.100002 6.200012,-0.299999c0.5,0 0.799988,-0.300003 1,-0.700001c0.199982,-0.299999 0.399994,-1 0.5,-1.900002c0.100006,-0.700001 0.5,-0.899998 1.100006,-0.700001c0.5,0.100002 0.799988,0.300003 0.699982,0.700001c-0.399994,2.100002 -0.600006,4.900002 -0.399994,8.299999c0,0.400002 -0.200012,0.599998 -0.799988,0.700005c-0.5,0.099998 -0.700012,-0.200005 -0.800018,-0.800003c-0.199982,-1.199997 -0.399994,-2 -0.600006,-2.400002s-0.699982,-0.599998 -1.399994,-0.699997c-1.299988,-0.200001 -3.199982,-0.200001 -5.799988,-0.200001c-0.300018,0 -0.399994,0.099998 -0.399994,0.299999l0,10.199997c0,1.5 0.799988,2.300003 2.5,2.700005c0.399994,0.099998 1.899994,0.099998 4.399994,0.099998c3.899994,0 6.299988,-1.400002 7.299988,-4.099998c0.200012,-0.599998 0.600006,-0.900002 1.100006,-0.599998c0.399994,0 0.600006,0.299995 0.5,0.799995z" class="st1"/>
    <path id="svg_15" d="m538.5,39c0,4.5 -1.700012,8.300003 -5,11.5c-3.299988,3.099998 -7.200012,4.599998 -11.799988,4.599998c-4.799988,0 -8.900024,-1.5 -12.100006,-4.400002c-3.300018,-3 -4.899994,-6.899994 -4.899994,-11.599998c0,-4.599998 1.699982,-8.5 5,-11.599998c3.299988,-3.099998 7.299988,-4.599998 12,-4.599998c4.799988,0 8.799988,1.5 12,4.5c3.099976,3.099998 4.799988,6.899998 4.799988,11.599998zm-4.799988,0.799999c0,-4.5 -1.200012,-8.099998 -3.700012,-10.799999c-2.399963,-2.5 -5.5,-3.799999 -9.5,-3.799999c-3.299988,0 -5.899963,1.200001 -8,3.599998s-3.099976,5.5 -3.099976,9.400002c0,4.600002 1.199982,8.200001 3.599976,10.899998c2.400024,2.599998 5.600037,3.800003 9.600037,3.800003c3.299988,0 5.899963,-1.200005 8,-3.599998s3.099976,-5.600006 3.099976,-9.500004z"/>
    <path id="svg_16" d="m580,24.099998c0,0.400002 -0.400024,0.700001 -1.299988,1c-1.900024,0.5 -2.799988,1.600002 -2.799988,3.300003l0,16.900002c0,3.5 0,6.399994 0.099976,8.599998c0,0.799995 -0.200012,1.299995 -0.599976,1.400002c-0.700012,0.199997 -1.300049,-0.200005 -1.800049,-1.100006c-0.799988,-1.5 -3.799988,-5.099998 -9.199951,-11c-4.5,-4.899998 -8.800049,-9.399998 -13,-13.599998c-0.100037,-0.099998 -0.300049,-0.199997 -0.400024,-0.099998c-0.200012,0.099998 -0.200012,0.299999 -0.200012,0.5l0,19.199997c0,2.100006 1,3.300003 3.100037,3.700005c0.899963,0.199997 1.299988,0.5 1.299988,0.900002c0,0.599998 -0.5,0.899994 -1.5,0.799995c-3.700012,-0.199997 -6.600037,-0.199997 -8.700012,0c-0.700012,0 -1,-0.199997 -1,-0.799995c0,-0.300003 0.299988,-0.600006 1,-0.700005c1.200012,-0.299995 2,-0.699997 2.400024,-1.099998s0.599976,-1.300003 0.599976,-2.5l0,-20.900002c0,-0.899998 -0.200012,-1.599998 -0.599976,-2.099998c-0.400024,-0.400002 -1.100037,-0.900002 -2.100037,-1.400002c-0.799988,-0.399998 -1.099976,-0.699997 -1.099976,-1.099998c0,-0.400002 0.399963,-0.599998 1.099976,-0.5c2,0.299999 3.799988,0.299999 5.299988,0.200001c0.800049,-0.100002 1.5,0.200001 2.100037,0.899998l19.599976,20.900002c0.299988,0.300003 0.400024,0.400002 0.5,0.400002c0.100037,0 0.200012,-0.200005 0.200012,-0.599998l0,-16.900002c0,-2 -1,-3.200001 -3.099976,-3.5c-0.700012,-0.100002 -1.100037,-0.300003 -1.100037,-0.700001c0,-0.700001 0.299988,-0.900002 1,-0.900002c2.600037,0.299999 5.400024,0.299999 8.600037,-0.099998c0.5,-0.100002 0.899963,-0.100002 1.099976,0c0.400024,0.099998 0.5,0.399998 0.5,0.899998z"/>
    <path id="svg_17" d="m608.599976,48.599998c-0.5,2 -0.799988,3.900002 -0.799988,5.599998c0,0.300003 -0.5,0.400002 -1.5,0.400002c-2.5,-0.099998 -5.5,-0.199997 -9.200012,-0.199997c-3.900024,0 -7.299988,0.099998 -10.400024,0.199997c-0.5,0 -0.699951,0 -0.799988,-0.099998s-0.200012,-0.300003 -0.200012,-0.699997c0,-0.400002 0.300049,-0.600006 1,-0.700005c1.5,-0.199997 2.300049,-1 2.300049,-2.5l0,-21.599998c0,-1.099998 -0.100037,-1.900002 -0.400024,-2.400002c-0.400024,-0.599998 -1,-1.099998 -2.099976,-1.5c-0.600037,-0.199997 -0.900024,-0.599998 -0.800049,-1.099998c0,-0.299999 0.100037,-0.5 0.300049,-0.599998s0.599976,-0.100002 1.199951,0c2.300049,0.299999 5,0.199997 8.200012,0c0.600037,0 0.900024,-0.100002 1,0c0.299988,0 0.5,0.299999 0.5,0.599998c0,0.400002 -0.099976,0.700001 -0.299988,0.900002c-0.099976,0.099998 -0.400024,0.199997 -1,0.299999c-1.099976,0.299999 -1.799988,0.5 -2.099976,0.899998s-0.400024,1 -0.400024,2l0,21c0,1.300003 0.400024,2.200005 1.299988,2.700005s2.5,0.699997 4.799988,0.699997c2.200012,0 3.900024,-0.300003 4.900024,-0.900002s1.900024,-1.599998 2.599976,-3.199997c0.300049,-0.599998 0.600037,-0.800003 1.100037,-0.599998c0.700012,0 0.900024,0.299995 0.799988,0.799995z"/>
    <path id="svg_18" d="m625.700012,24.099998c0,0.400002 -0.400024,0.700001 -1.299988,1c-1.900024,0.600002 -2.799988,1.300003 -2.799988,2.200001l0,22.799999c0,1.5 0.899963,2.400002 2.599976,2.700005c0.900024,0.199997 1.299988,0.5 1.299988,0.899994c0,0.400002 -0.099976,0.600006 -0.200012,0.700005s-0.599976,0.099998 -1.199951,0.099998c-4.100037,-0.199997 -7.300049,-0.199997 -9.600037,0c-0.599976,0 -0.899963,-0.099998 -1,-0.300003c0,-0.099998 0,-0.299995 0,-0.5c0,-0.299995 0.400024,-0.5 1.100037,-0.699997c1.299988,-0.300003 2.099976,-0.5 2.299988,-0.599998c0.5,-0.300003 0.799988,-1 0.799988,-1.900002l0,-23c0,-1.299999 -0.900024,-2.099998 -2.599976,-2.400002c-0.700012,-0.099998 -1.100037,-0.399998 -1.100037,-0.699997c0,-0.5 0.100037,-0.700001 0.200012,-0.800003s0.400024,-0.099998 0.799988,-0.099998c3,0.299999 6.200012,0.299999 9.400024,-0.099998c0.599976,-0.100002 1,-0.100002 1.099976,-0.100002c0.099976,0 0.200012,0.299999 0.200012,0.799999z"/>
    <path id="svg_19" d="m667.599976,24.099998c0,0.400002 -0.400024,0.700001 -1.299988,1c-1.900024,0.5 -2.799988,1.600002 -2.799988,3.300003l0,16.900002c0,3.5 0,6.399994 0.099976,8.599998c0,0.799995 -0.200012,1.299995 -0.599976,1.400002c-0.700012,0.199997 -1.300049,-0.200005 -1.800049,-1.100006c-0.799988,-1.5 -3.799988,-5.099998 -9.199951,-11c-4.5,-4.899998 -8.800049,-9.399998 -13,-13.599998c-0.100037,-0.099998 -0.300049,-0.199997 -0.400024,-0.099998c-0.200012,0.099998 -0.200012,0.299999 -0.200012,0.5l0,19.199997c0,2.100006 1,3.300003 3.100037,3.700005c0.899963,0.199997 1.299988,0.5 1.299988,0.900002c0,0.599998 -0.5,0.899994 -1.5,0.799995c-3.700012,-0.199997 -6.600037,-0.199997 -8.700012,0c-0.700012,0 -1,-0.199997 -1,-0.799995c0,-0.300003 0.299988,-0.600006 1,-0.700005c1.200012,-0.299995 2,-0.699997 2.400024,-1.099998s0.599976,-1.300003 0.599976,-2.5l0,-20.900002c0,-0.899998 -0.200012,-1.599998 -0.599976,-2.099998c-0.400024,-0.400002 -1.100037,-0.900002 -2.100037,-1.400002c-0.799988,-0.399998 -1.099976,-0.699997 -1.099976,-1.099998c0,-0.400002 0.399963,-0.599998 1.099976,-0.5c2,0.299999 3.799988,0.299999 5.299988,0.200001c0.800049,-0.100002 1.5,0.200001 2.100037,0.899998l19.700012,20.900002c0.299988,0.300003 0.400024,0.400002 0.5,0.400002c0.099976,0 0.200012,-0.200005 0.200012,-0.599998l0,-16.900002c0,-2 -1,-3.200001 -3.100037,-3.5c-0.699951,-0.100002 -1.099976,-0.300003 -1.099976,-0.700001c0,-0.700001 0.299988,-0.900002 1,-0.900002c2.599976,0.299999 5.400024,0.299999 8.599976,-0.099998c0.5,-0.100002 0.900024,-0.100002 1.100037,0c0.299988,0.099998 0.399963,0.399998 0.399963,0.899998z"/>
    <path id="svg_20" d="m696.700012,48.599998c-0.400024,1.900002 -0.700012,3.700005 -0.900024,5.599998c0,0.300003 -0.5,0.400002 -1.399963,0.400002c-2.400024,-0.099998 -5.5,-0.199997 -9.299988,-0.199997c-4.200012,0 -7.700012,0.099998 -10.700012,0.199997c-0.700012,0 -1,-0.199997 -1,-0.799995c0,-0.400002 0.299988,-0.600006 1,-0.700005c0.899963,-0.099998 1.5,-0.299995 1.799988,-0.5c0.299988,-0.299995 0.5,-1 0.5,-2l0,-21.599998c0,-1.5 -0.099976,-2.400002 -0.400024,-2.799999s-1,-0.799999 -2.199951,-1.100002c-0.600037,-0.199997 -0.900024,-0.599998 -0.700012,-1.099998c0.099976,-0.299999 0.200012,-0.5 0.399963,-0.5c0.200012,0 0.600037,0 1.200012,0.099998c1,0.200001 3.600037,0.200001 7.799988,0.200001c4.200012,0 7.800049,-0.099998 10.900024,-0.299999c1,-0.099998 1.5,0 1.5,0.200001c0,0.099998 0,0.200001 0,0.200001c-0.299988,1.5 -0.5,3.299999 -0.400024,5.299999c0,0.5 -0.199951,0.700001 -0.699951,0.700001c-0.400024,0 -0.700012,-0.200001 -0.900024,-0.600002c-0.400024,-1.099998 -0.799988,-1.799999 -1.099976,-2.200001c-0.5,-0.599998 -1.200012,-1 -2.200012,-1.099998c-0.799988,-0.099998 -3.400024,-0.200001 -7.900024,-0.200001c-0.5,0 -0.799988,0.100002 -1,0.299999c-0.099976,0.100002 -0.099976,0.300003 -0.099976,0.700001l0,9.799999c0,0.400002 0.200012,0.600002 0.700012,0.600002c1.399963,0 3.5,-0.100002 6.199951,-0.299999c0.5,0 0.800049,-0.300003 1,-0.700001c0.200012,-0.299999 0.400024,-1 0.5,-1.900002c0.100037,-0.700001 0.5,-0.899998 1.100037,-0.700001c0.5,0.100002 0.799988,0.300003 0.700012,0.700001c-0.400024,2.100002 -0.600037,4.900002 -0.400024,8.299999c0,0.400002 -0.200012,0.599998 -0.799988,0.700005c-0.5,0.099998 -0.700012,-0.200005 -0.799988,-0.800003c-0.200012,-1.199997 -0.400024,-2 -0.600037,-2.400002s-0.700012,-0.599998 -1.399963,-0.699997c-1.300049,-0.200001 -3.200012,-0.200001 -5.800049,-0.200001c-0.299988,0 -0.399963,0.099998 -0.399963,0.299999l0,10.199997c0,1.5 0.799988,2.300003 2.5,2.700005c0.399963,0.099998 1.899963,0.099998 4.399963,0.099998c3.900024,0 6.300049,-1.400002 7.300049,-4.099998c0.199951,-0.599998 0.599976,-0.900002 1.099976,-0.599998c0.399963,0 0.599976,0.299995 0.5,0.799995z"/>
   </g>
  </g>
  <g id="Ebene_3">
   <g id="svg_21">
    <linearGradient transform="translate(0,1) translate(0,-1) translate(0,-1) translate(0,-1) translate(0,-1) translate(0,-1) translate(0,-1) translate(0,-1) translate(0,-1) translate(0,-1) translate(0,-1) translate(0,-1) translate(0,-1) translate(0,-1) translate(0,-1) translate(0,-1) translate(0,-1) translate(0,-1) translate(0,-1) translate(0,-1) translate(0,-1) translate(0,-1) translate(0,-1) translate(0,-1) translate(0,-1) translate(0,-1) " y2="59.0002" x2="785.1371" y1="59.0002" x1="788.9886" gradientUnits="userSpaceOnUse" id="SVGID_1_">
     <stop stop-color="#020203" offset="0"/>
     <stop stop-color="#020203" stop-opacity="0" offset="1"/>
    </linearGradient>
    <path id="svg_22" d="m34.200001,47.300003l10.700001,-10.200005c0,0 -1.700001,-7.199997 -3.300003,-14.199997c-10.199999,-1.100002 -12.899998,2.199997 -12.899998,2.199997s-2.900002,3.700001 -4,13.900002c0.9,2.800003 9.5,8.300003 9.5,8.300003z" class="st2"/>
    <linearGradient transform="translate(0,1) translate(0,-1) translate(0,-1) translate(0,-1) translate(0,-1) translate(0,-1) translate(0,-1) translate(0,-1) translate(0,-1) translate(0,-1) translate(0,-1) translate(0,-1) translate(0,-1) translate(0,-1) translate(0,-1) translate(0,-1) translate(0,-1) translate(0,-1) translate(0,-1) translate(0,-1) translate(0,-1) translate(0,-1) translate(0,-1) translate(0,-1) translate(0,-1) translate(0,-1) " y2="68.7259" x2="835.407" y1="68.7259" x1="839.3276" gradientUnits="userSpaceOnUse" id="SVGID_2_">
     <stop stop-color="#020203" offset="0"/>
     <stop stop-color="#020203" stop-opacity="0" offset="1"/>
    </linearGradient>
    <path id="svg_23" d="m61.200001,42.400002c0,0 2.799999,-4.100002 10.999996,-9.600002c6.800003,2.900002 9.700005,7.799999 9.700005,7.799999s-0.300003,7.400002 -4.700005,14.700005c-7.399994,2.5 -12.599998,1 -12.599998,1l-3.399998,-13.900002z" class="st3"/>
    <linearGradient transform="translate(0,1) translate(0,-1) translate(0,-1) translate(0,-1) translate(0,-1) translate(0,-1) translate(0,-1) translate(0,-1) translate(0,-1) translate(0,-1) translate(0,-1) translate(0,-1) translate(0,-1) translate(0,-1) translate(0,-1) translate(0,-1) translate(0,-1) translate(0,-1) translate(0,-1) translate(0,-1) translate(0,-1) translate(0,-1) translate(0,-1) translate(0,-1) translate(0,-1) translate(0,-1) " y2="35.4069" x2="890.9191" y1="35.4069" x1="895.1664" gradientUnits="userSpaceOnUse" id="SVGID_3_">
     <stop stop-color="#020203" offset="0"/>
     <stop stop-color="#020203" stop-opacity="0" offset="1"/>
    </linearGradient>
    <path id="svg_24" d="m53.900002,12.900002c0,0 -0.5,-3.400002 -1.900002,-6.600002c14,-5.599998 22.900002,7.200001 22.900002,7.200001s-2.900002,2.200001 -6.5,4.299999c-6.800003,-4.700001 -14.5,-4.899998 -14.5,-4.899998z" class="st4"/>
    <linearGradient transform="translate(0,1) translate(0,-1) translate(0,-1) translate(0,-1) translate(0,-1) translate(0,-1) translate(0,-1) translate(0,-1) translate(0,-1) translate(0,-1) translate(0,-1) translate(0,-1) translate(0,-1) translate(0,-1) translate(0,-1) translate(0,-1) translate(0,-1) translate(0,-1) translate(0,-1) translate(0,-1) translate(0,-1) translate(0,-1) translate(0,-1) translate(0,-1) translate(0,-1) translate(0,-1) " y2="92.2461" x2="860.1382" y1="92.2461" x1="864.3267" gradientUnits="userSpaceOnUse" id="SVGID_4_">
     <stop stop-color="#020203" offset="0"/>
     <stop stop-color="#020203" stop-opacity="0" offset="1"/>
    </linearGradient>
    <path id="svg_25" d="m38,61.400002c0,0 4.900002,4.799995 14.900002,5.199997c0.699997,1.800003 2.5,6.5 2.5,6.5s-4.600002,2 -7.200001,2c-4,-0.299995 -11,-3.799995 -11,-3.799995s-4.100002,-4.5 -4.299999,-5.100006c1.799999,-1.699997 5.099998,-4.799995 5.099998,-4.799995z" class="st5"/>
    <linearGradient transform="translate(0,1) translate(0,-1) translate(0,-1) translate(0,-1) translate(0,-1) translate(0,-1) translate(0,-1) translate(0,-1) translate(0,-1) translate(0,-1) translate(0,-1) translate(0,-1) translate(0,-1) translate(0,-1) translate(0,-1) translate(0,-1) translate(0,-1) translate(0,-1) translate(0,-1) translate(0,-1) translate(0,-1) translate(0,-1) translate(0,-1) translate(0,-1) translate(0,-1) translate(0,-1) " y2="58.2895" x2="298.3052" y1="58.2895" x1="299.3784" gradientUnits="userSpaceOnUse" id="SVGID_5_">
     <stop stop-color="#020203" offset="0"/>
     <stop stop-color="#020203" stop-opacity="0" offset="1"/>
    </linearGradient>
    <path id="svg_26" d="m88.099998,29.299999c0.300003,-0.099998 0.599998,-0.200001 0.599998,-0.200001s1.5,5 1.5,10.5c-0.799995,-2.299999 -2.099998,-4.399998 -2.099998,-4.399998s0.599998,-1.900002 0,-5.900002z" class="st6"/>
    <linearGradient transform="translate(0,1) translate(0,-1) translate(0,-1) translate(0,-1) translate(0,-1) translate(0,-1) translate(0,-1) translate(0,-1) translate(0,-1) translate(0,-1) translate(0,-1) translate(0,-1) translate(0,-1) translate(0,-1) translate(0,-1) translate(0,-1) translate(0,-1) translate(0,-1) translate(0,-1) translate(0,-1) translate(0,-1) translate(0,-1) translate(0,-1) translate(0,-1) translate(0,-1) translate(0,-1) " y2="88.9081" x2="388.2263" y1="88.9081" x1="389.811" gradientUnits="userSpaceOnUse" id="SVGID_6_">
     <stop stop-color="#020203" offset="0"/>
     <stop stop-color="#020203" stop-opacity="0" offset="1"/>
    </linearGradient>
    <path id="svg_27" d="m82.199997,62.300003c-3,3.5 -4.099998,4.199997 -5.299995,5.199997c-0.099998,0.099998 -0.200005,0 -0.099998,-0.099998c0,0 2,-2.800003 2.799995,-4.300003c0.099998,0.300003 0,0 0,0c0.200005,0 1.099998,-0.299995 2.5,-1c0.099998,0.099998 0.200005,0.200005 0.099998,0.200005z" class="st7"/>
    <linearGradient transform="translate(0,1) translate(0,-1) translate(0,-1) translate(0,-1) translate(0,-1) translate(0,-1) translate(0,-1) translate(0,-1) translate(0,-1) translate(0,-1) translate(0,-1) translate(0,-1) translate(0,-1) translate(0,-1) translate(0,-1) translate(0,-1) translate(0,-1) translate(0,-1) translate(0,-1) translate(0,-1) translate(0,-1) translate(0,-1) translate(0,-1) translate(0,-1) translate(0,-1) translate(0,-1) " y2="69.0199" x2="206.9877" y1="69.0199" x1="207.9529" gradientUnits="userSpaceOnUse" id="SVGID_7_">
     <stop stop-color="#020203" offset="0"/>
     <stop stop-color="#020203" stop-opacity="0" offset="1"/>
    </linearGradient>
    <path id="svg_28" d="m19.200001,48.199997c0,0 0.299999,-3.5 0.4,-4c-0.1,0 -0.9,-1.399994 -1.4,-2.399994c0.199999,3.199997 1,6.399994 1,6.399994z" class="st8"/>
    <linearGradient transform="translate(0,1) translate(0,-1) translate(0,-1) translate(0,-1) translate(0,-1) translate(0,-1) translate(0,-1) translate(0,-1) translate(0,-1) translate(0,-1) translate(0,-1) translate(0,-1) translate(0,-1) translate(0,-1) translate(0,-1) translate(0,-1) translate(0,-1) translate(0,-1) translate(0,-1) translate(0,-1) translate(0,-1) translate(0,-1) translate(0,-1) translate(0,-1) translate(0,-1) translate(0,-1) " y2="38.288" x2="380.9498" y1="38.288" x1="382.7557" gradientUnits="userSpaceOnUse" id="SVGID_8_">
     <stop stop-color="#020203" offset="0"/>
     <stop stop-color="#020203" stop-opacity="0" offset="1"/>
    </linearGradient>
    <path id="svg_29" d="m28.700001,16.599998c1.099998,-1.699997 2,-3.299999 3.899998,-5.699997c-2.899998,1.599998 -6.899998,6.899998 -6.899998,6.899998s1.799999,-1 3,-1.200001z" class="st9"/>
   </g>
  </g>
 </g>
</svg>